<svg id="Layer_1" data-name="Layer 1" xmlns="http://www.w3.org/2000/svg" viewBox="0 0 140 140"><defs><style>.cls-1,.cls-6{fill:#d4d3da;}.cls-1,.cls-5{stroke:#293052;stroke-miterlimit:10;stroke-width:3px;}.cls-2{fill:#293052;}.cls-3{fill:#fff;}.cls-4{fill:#918da0;}.cls-5{fill:none;}</style></defs><title>icons</title><rect class="cls-1" x="5.43" y="5.55" width="119.2" height="128.9"/><rect class="cls-2" x="5.43" y="5.92" width="119.2" height="16.8"/><rect class="cls-3" x="110.48" y="17.13" width="12.41" height="2.02"/><rect class="cls-3" x="93.72" y="17.13" width="12.41" height="2.02"/><rect class="cls-3" x="61.58" y="17.18" width="9.71" height="2.02"/><rect class="cls-3" x="11.13" y="77.27" width="31.8" height="30.66"/><rect class="cls-4" x="9.89" y="110.98" width="9.81" height="2.43"/><rect class="cls-4" x="21.6" y="110.98" width="9.81" height="2.43"/><rect class="cls-4" x="9.89" y="68.26" width="9.81" height="2.43"/><rect class="cls-5" x="11.13" y="77.27" width="31.8" height="30.66"/><rect class="cls-3" x="49.46" y="77.27" width="31.8" height="30.66"/><rect class="cls-5" x="49.46" y="77.27" width="31.8" height="30.66"/><rect class="cls-3" x="86.86" y="77.27" width="31.8" height="30.66"/><rect class="cls-5" x="86.86" y="77.27" width="31.8" height="30.66"/><rect class="cls-3" x="11.13" y="32.13" width="107.53" height="33.08"/><rect class="cls-5" x="11.27" y="32.13" width="107.53" height="33.08"/><path class="cls-2" d="M127.37,60.18c-2.34-.32-8.21-0.32-8.21-0.32h-0.41s-5.88,0-8.21.3c-4.08.55-7.2,0.48-7.21,8.37l0,46.6c0,3.95,3.32,6.55,7.7,6.55h15.82c4.38,0,7.7-2.59,7.71-6.54l0-46.6C134.57,60.68,131.46,60.74,127.37,60.18Zm-5,58.89a0.59,0.59,0,0,1-.59.59H116a0.59,0.59,0,0,1-.59-0.59v-0.84a0.59,0.59,0,0,1,.59-0.58h5.82a0.59,0.59,0,0,1,.58.59v0.84Zm9.7-5.6-26.66,0,0-46.66,26.66,0Z"/><rect class="cls-6" x="105.47" y="66.79" width="26.66" height="46.66"/><path class="cls-3" d="M122.4,119.07a0.59,0.59,0,0,1-.59.59H116a0.59,0.59,0,0,1-.59-0.59v-0.84a0.59,0.59,0,0,1,.59-0.58h5.82a0.59,0.59,0,0,1,.58.59v0.84Z"/></svg>