<svg id="Layer_1" data-name="Layer 1" xmlns="http://www.w3.org/2000/svg" viewBox="0 0 140 140"><defs><style>.cls-1{fill:#fff;stroke-width:3px;}.cls-1,.cls-2{stroke:#d4d3da;}.cls-1,.cls-2,.cls-3{stroke-miterlimit:10;}.cls-2{fill:none;}.cls-3{fill:#e88024;stroke:#293052;stroke-width:5px;}.cls-4{fill:#231f20;}</style></defs><title>icons</title><rect class="cls-1" x="5.14" y="5.14" width="129.72" height="129.72"/><line class="cls-2" x1="5.68" y1="45.71" x2="134.5" y2="45.71"/><line class="cls-2" x1="5.5" y1="20.64" x2="134.32" y2="20.64"/><line class="cls-2" x1="5.68" y1="69.87" x2="134.5" y2="69.87"/><line class="cls-2" x1="5.68" y1="94.49" x2="134.5" y2="94.49"/><line class="cls-2" x1="5.68" y1="119.46" x2="134.5" y2="119.46"/><rect class="cls-3" x="42.93" y="36.38" width="54.14" height="66.02" rx="2" ry="2"/><path class="cls-4" d="M15.49,71.38l1.58-15H30.78v3.29H20.21l-0.9,7.69a8.55,8.55,0,0,1,1.93-1.06,7.13,7.13,0,0,1,2.45-.46,7.37,7.37,0,0,1,6,2.46A9.91,9.91,0,0,1,31.82,75a9.63,9.63,0,0,1-2.21,6.62,8.14,8.14,0,0,1-6.44,2.5,8.83,8.83,0,0,1-5.79-1.9,6.57,6.57,0,0,1-2.22-5.59l0-.11h3.35A4.54,4.54,0,0,0,19.83,80a4.64,4.64,0,0,0,3.34,1.23,4.37,4.37,0,0,0,3.65-1.65A7.15,7.15,0,0,0,28.11,75a6.82,6.82,0,0,0-1.32-4.32A4.35,4.35,0,0,0,23.16,69a5.81,5.81,0,0,0-3.16.66,3.75,3.75,0,0,0-1.43,2Z"/><path class="cls-4" d="M72,54.54a14.23,14.23,0,0,1,3.21.37,10.56,10.56,0,0,1,2.63.93L76.92,59.1a12.59,12.59,0,0,0-2.22-.88A9.82,9.82,0,0,0,72,57.89a6.53,6.53,0,0,0-5.45,2.71,11.31,11.31,0,0,0-2.07,7.06v0.5a10.4,10.4,0,0,1,3.17-1.89,10.67,10.67,0,0,1,3.84-.68,8.43,8.43,0,0,1,6.73,2.92,11,11,0,0,1,2.51,7.4,11.74,11.74,0,0,1-2.67,8A9,9,0,0,1,70.92,87a9.88,9.88,0,0,1-7.66-3.36q-3-3.36-3-9.46v-6A14.17,14.17,0,0,1,63.6,58.3,10.8,10.8,0,0,1,72,54.54ZM70.53,68.76a7.34,7.34,0,0,0-3.72.89A6,6,0,0,0,64.47,72v2.55a10.67,10.67,0,0,0,1.84,6.7,5.63,5.63,0,0,0,4.61,2.36A4.62,4.62,0,0,0,75,81.4a9.78,9.78,0,0,0,1.46-5.5,8.08,8.08,0,0,0-1.57-5.12A5.22,5.22,0,0,0,70.53,68.76Z"/><path class="cls-4" d="M125.2,59.26a38.56,38.56,0,0,0-6.71,10.47A46.72,46.72,0,0,0,116,80.78l-0.3,3H112l0.3-3a40.19,40.19,0,0,1,3.07-11.57,44.64,44.64,0,0,1,6.23-10h-14.9V56.35H125.2v2.92Z"/></svg>